<svg width="472" height="100" viewBox="0 0 472 100" fill="none" xmlns="http://www.w3.org/2000/svg">
<path d="M25.332 22.1323C21.4324 22.1323 17.714 23.1416 14.558 25.0602L9.98656 28.1849C10.0647 26.2632 10.1022 21.048 10.1397 15.5704C10.1772 10.2709 10.2178 4.79018 10.2959 2.09668C10.3272 1.03115 9.26476 0.624941 8.46171 0.412461C7.85551 0.253101 6.9306 0.162485 5.85258 0.162485C4.77455 0.162485 3.60904 0.262475 2.85598 0.428085C1.00928 0.834297 0.0999906 1.34987 0.146861 1.93419L0 66.3532C0 66.3938 0.00624941 66.4313 0.0218729 66.4688C0.421835 67.4874 3.66528 68.0311 5.84945 68.0311C7.11183 68.0311 9.33663 67.8624 10.0553 66.7344C10.0897 66.6813 10.1053 66.6188 10.1053 66.5531L9.98656 63.3534C12.1114 65.9063 16.8234 68.4748 19.4419 68.7498C20.5824 68.8685 21.7136 68.931 22.8041 68.931C30.9252 68.931 37.5871 65.522 41.5617 59.3319C46.3457 51.8858 46.68 41.4899 42.4366 32.2064C39.5963 25.9913 33.0407 22.1323 25.3289 22.1323H25.332ZM31.0752 55.4854C28.7254 58.0821 25.3726 59.4538 21.3761 59.4538C20.5262 59.4538 19.6357 59.3913 18.7357 59.2663C15.1017 58.7664 12.4238 56.3947 11.1958 52.5857C9.37412 46.9487 11.0646 39.5619 15.0392 35.7716C17.6483 33.2844 20.6512 31.9689 23.7228 31.9689C29.416 31.9689 33.8406 36.4966 34.4874 42.9835C34.9936 48.058 33.7812 52.4982 31.0752 55.4854Z" fill="#f9fafa"/>
<path d="M274.593 26.6944C268.25 26.6944 262.482 29.5004 258.948 34.2499L259.794 6.1838C259.794 6.15567 259.794 6.12755 259.785 6.09943C259.394 4.52458 256.748 4.43708 255.167 4.38709C255.017 4.38084 254.876 4.37771 254.757 4.37147C254.236 4.34647 253.751 4.33397 253.279 4.33397C250.233 4.33397 248.655 4.79955 248.458 5.75884C248.455 5.77446 248.452 5.79008 248.452 5.80571C248.436 6.1338 247.374 28.4317 247.227 47.5268C246.73 48.333 246.174 49.1266 245.558 49.8235C242.055 53.7856 236.343 58.2383 234.865 58.9757L234.719 42.6772C234.719 42.3429 234.687 41.2868 234.647 39.8213C234.522 35.3529 234.294 27.035 234.381 23.779C234.387 23.5197 234.284 23.2697 234.078 23.0572C233.138 22.0917 230.335 22.0167 229.497 22.0167C227.269 22.0167 223.463 22.4979 223.338 24.304C223.238 25.7445 223.323 27.9786 223.423 30.5659C223.704 37.9746 224.129 49.1735 220.539 54.1918C218.47 57.0821 215.399 58.9507 212.714 58.9507C209.802 58.9507 207.865 56.8165 207.265 52.9388L207.324 23.8696C207.324 23.8478 207.324 23.8228 207.318 23.8009C206.965 22.2104 203.275 22.0386 201.703 22.0386C201.647 22.0386 196.069 22.0542 195.941 23.479C195.835 24.1665 195.925 27.4568 196.053 32.0095C196.272 39.8431 196.575 50.5703 195.938 52.8325C195.329 55.0042 193.382 57.3384 191.313 58.3883C190.873 58.6133 190.373 58.7289 189.873 58.7289C189.251 58.7289 188.651 58.5508 188.135 58.2164C186.52 57.1634 185.648 55.4917 185.389 52.9513C184.651 45.777 185.208 36.6341 185.745 27.7943C186.004 23.5197 186.251 19.4825 186.336 15.861C186.414 12.5613 186.479 4.87767 186.283 2.05918C186.148 0.146861 182.22 0 181.021 0C178.643 0 175.093 0.524951 175.055 1.97794L174.962 26.585C173.643 25.457 170.168 22.5948 168.45 22.2354C166.709 21.8698 164.988 21.6855 163.332 21.6855C148.936 21.6855 141.106 35.0717 141.049 47.6674C141.049 48.0767 141.068 48.6204 141.093 49.1985C141.152 50.7109 141.227 52.5919 140.956 53.4544C140.187 55.8885 139.215 56.6603 138.837 56.9603C137.825 57.7633 136.443 58.2633 135.231 58.2633C134.334 58.2633 132.769 57.9664 132.391 55.9823C131.813 52.9607 132.044 49.3454 132.288 45.5207C132.756 38.187 133.244 30.6065 128.325 25.4695C126.119 23.1635 122.729 21.8948 118.779 21.8948C114.574 21.8948 110.283 23.3353 107.302 25.7476C106.571 26.3382 106.143 26.935 105.803 27.4131C105.612 27.6787 105.446 27.913 105.256 28.1099C105.162 27.7286 105.106 26.8975 105.071 26.3632C105.006 25.3476 104.953 24.7071 104.796 24.4008C104.246 23.3353 102.756 22.7697 100.484 22.7697C98.2127 22.7697 95.6848 23.3541 94.413 23.8978C93.9474 24.0977 93.6475 24.5477 93.6506 25.0477C93.66 26.7162 93.81 28.4786 93.9537 30.1847C94.1349 32.3501 94.3255 34.5905 94.2505 36.7653C94.0006 44.299 93.4444 46.2238 87.6355 51.3608C83.5359 54.9886 76.3928 59.2257 69.7591 59.2257C67.0281 59.2257 64.6158 58.5039 62.5941 57.0853C61.6161 56.3978 57.9446 52.6232 57.9789 51.0265C57.9821 50.8609 58.0289 50.7421 58.1227 50.6546C59.71 50.7452 61.163 50.789 62.566 50.789C75.3836 50.789 82.8329 46.8831 84.7108 39.1807C85.8482 34.5218 85.1733 30.4346 82.761 27.3631C79.98 23.8196 75.0711 21.7886 69.2966 21.7886C64.8221 21.7886 60.4381 23.0291 56.9478 25.2851C48.6611 30.6409 44.4177 41.8711 46.6269 52.5951C47.708 57.8321 50.4171 61.9004 54.6792 64.6877C58.4445 67.15 63.2597 68.453 68.5967 68.453C77.9208 68.453 87.1356 64.5283 92.3601 58.3914V65.7876C92.3601 66.7937 93.0788 67.5249 94.3318 67.7999C94.9099 67.9249 97.6158 67.9405 98.7501 67.9405C99.6938 67.9405 100.584 67.9311 100.966 67.9186C101.072 67.9155 101.181 67.9124 101.297 67.9093C102.05 67.8905 102.906 67.8718 103.643 67.5093C104.14 67.2656 104.478 66.7906 104.55 66.2375C104.75 64.6877 104.656 61.188 104.581 58.3727C104.537 56.7009 104.496 55.2604 104.528 54.5824C104.553 54.0418 104.578 53.4106 104.606 52.7169C104.74 49.3016 104.928 44.6239 105.371 42.3398C106.215 38.0058 111.199 32.7751 116.12 32.7751C118.958 32.7751 120.723 34.7499 121.092 38.3339C121.345 40.8024 121.192 43.8021 121.029 46.9768C120.676 53.8825 120.276 61.7067 124.226 65.8626C126.157 67.8936 128.894 68.881 132.591 68.881C133.437 68.881 134.341 68.8279 135.284 68.7217C139.884 68.203 142.493 64.9689 144.958 61.7505C146.614 63.794 148.374 65.722 151.155 67.0656C154.007 68.4436 157.198 69.1716 160.379 69.1716C166.747 69.1716 172.378 66.2813 175.587 61.4005C177.005 66.0563 180.474 68.7092 185.192 68.7092C189.942 68.7092 195.182 65.9188 198.131 61.8692C200.547 66.4938 204.5 69.0342 209.315 69.0342C213.205 69.0342 217.401 67.4031 221.132 64.444C222.082 63.6909 222.845 63.0128 223.485 62.3504C223.557 65.2408 223.31 65.9219 220.751 67.6749C218.751 69.0435 216.677 69.9934 214.477 70.9933C211.68 72.2682 208.79 73.5869 206.09 75.8429C199.919 81.0049 197.244 87.9605 199.278 93.5631C200.741 97.594 204.437 100 209.162 100C211.965 100 215.036 99.1876 218.286 97.5877C223.385 95.0755 227.404 90.704 230.228 84.5952C233.119 78.3489 234.066 71.7683 234.35 67.2843C238.509 65.2251 243.265 62.8566 247.283 59.7506C247.377 63.794 247.552 67.2968 247.839 69.8653C248.011 71.4027 254.182 71.4464 254.885 71.4464C258.36 71.4464 258.535 70.9527 258.601 70.7684C258.954 69.781 258.926 68.6123 258.851 67.853C263.028 71.0808 267.425 72.7151 271.931 72.7151C278.552 72.7151 284.976 68.9498 289.11 62.641C294.104 55.0198 294.9 45.4457 291.235 37.0278C288.457 30.6471 282.077 26.6819 274.584 26.6819L274.593 26.6944ZM61.5349 33.9937C63.5159 31.5908 66.1407 30.2159 68.7373 30.2159C69.6497 30.2159 70.5496 30.3878 71.4152 30.7284C74.5368 31.9533 75.2617 34.4436 74.8961 36.3653C74.2837 39.5994 71.2058 41.2899 68.478 41.2899H57.8258C58.857 38.1589 60.0725 35.7685 61.538 33.9937H61.5349ZM166.088 58.1883C164.691 58.7414 163.347 59.0226 162.091 59.0226C156.263 59.0226 153.208 53.0732 152.767 47.1768C152.054 37.6777 157.157 31.8814 162.563 31.0658C163.303 30.9533 164.028 30.8971 164.719 30.8971C170.015 30.8971 173.824 34.2968 174.912 39.99C176.193 46.7144 173.243 55.3604 166.091 58.1914L166.088 58.1883ZM222.032 75.9648C221.629 76.899 221.254 77.8521 220.889 78.777C219.023 83.5078 217.261 87.973 212.28 89.7822C211.999 89.8853 211.702 89.9384 211.405 89.9384C210.715 89.9384 210.065 89.6666 209.58 89.1698C208.887 88.4605 208.552 87.6949 208.565 86.8294C208.584 85.2889 209.687 83.4734 211.94 81.2767C212.508 80.7206 217.905 76.8897 221.089 75.3679C221.295 75.2679 221.485 75.1773 221.657 75.093C221.985 74.9336 222.32 74.768 222.529 74.6899C222.439 75.0273 222.164 75.6617 222.032 75.9679V75.9648ZM280.705 55.9854C278.561 60.8505 274.421 63.6409 269.344 63.6409C269.125 63.6409 268.903 63.6347 268.681 63.6253C264.675 63.4409 261.594 61.1005 260.01 57.0322C257.804 51.3733 259.101 43.8865 262.966 39.99C265.491 37.4465 268.819 35.9248 271.871 35.9248C274.362 35.9248 276.59 36.9215 278.318 38.8089C282.274 43.1303 283.258 50.1922 280.708 55.9823L280.705 55.9854Z" fill="#f9fafa"/>
<path d="M471.334 51.9733C471.253 51.4046 471 50.9109 470.609 50.5515C469.728 49.7391 468.081 49.1516 466.688 49.1516C465.809 49.1516 465.153 49.3829 464.791 49.8203C461.235 54.1137 459.248 56.4385 456.495 58.2102C451.908 61.1599 446.858 62.8535 442.646 62.8535C439.681 62.8535 437.097 62.0473 434.969 60.4568C431.091 57.5571 429.163 51.7889 430.053 45.7613C430.897 40.065 433.972 35.731 438.281 34.1687C439.256 33.8156 440.168 33.6343 440.99 33.6343C442.199 33.6343 443.221 34.0312 443.94 34.778C444.658 35.5248 445.043 36.5934 444.999 37.7058C444.968 38.4745 444.774 39.2432 444.586 39.9869C444.193 41.5555 443.783 43.1772 445.302 44.2084C446.071 44.7302 447.036 45.0083 448.099 45.0083C451.086 45.0083 454.551 42.7616 454.751 39.54C455.232 31.7908 451.973 26.6381 445.811 25.3976C444.361 25.107 442.896 24.957 441.452 24.957C435.75 24.957 430.235 27.2849 425.919 31.5095C421.739 35.6029 419.014 41.0993 418.242 46.9862C418.13 47.8486 418.111 49.0641 418.092 50.3515C418.064 52.1389 418.039 53.9887 417.748 54.8449C416.97 57.1478 412.449 61.4317 409.543 61.4317C408.162 61.4317 407.309 60.435 407.002 58.4726C406.549 55.5698 407.018 51.892 407.512 47.9986C408.546 39.8681 409.715 30.6534 401.728 27.713C400.297 27.1881 398.772 26.9193 397.188 26.9193C389.289 26.9193 381.599 33.4469 378.53 36.1841C378.521 35.7779 378.54 35.3529 378.565 34.778C378.577 34.5061 378.59 34.203 378.602 33.8562C378.758 33.7687 379.083 33.6156 379.424 33.45C381.189 32.6032 385.329 30.6221 388.917 27.5849C393.41 23.779 395.647 19.5638 395.566 15.058C395.372 4.64956 391.451 0.00624941 382.842 0.00624941C382.33 0.00624941 381.795 0.0218729 381.249 0.0562447C374.593 0.456207 370.362 5.24326 368.319 14.6924C366.594 22.6635 366.744 32.6469 366.866 40.6712C366.925 44.6364 366.978 48.0611 366.816 50.7452C366.559 54.9823 360.072 60.5537 357.538 60.8474C357.257 60.8787 356.979 60.8974 356.707 60.8974C353.836 60.8974 351.758 59.1007 351.414 56.3228C350.895 52.1201 351.073 47.4612 351.248 42.9585C351.339 40.6087 351.423 38.387 351.417 36.2279C351.417 36.2279 361.576 36.2279 361.579 36.2279C362.935 36.2279 363.038 32.3751 363.038 31.1939C363.038 30.0128 362.932 26.2382 361.56 26.2382H351.733L351.97 12.0614C351.911 10.424 349.011 9.8397 346.321 9.8397C344.415 9.8397 341.171 10.199 341.115 11.552C340.968 15.0236 341.087 24.379 341.115 26.235C341.115 26.235 333.853 26.1319 333.847 26.1319C332.238 26.1319 331.806 29.716 331.806 31.8345C331.806 32.9563 331.925 35.5685 333.013 35.5685C333.837 35.5685 334.812 35.5217 335.753 35.4779C336.715 35.431 337.712 35.3842 338.575 35.3842C340.534 35.3842 340.952 35.6498 341.04 35.7779L339.628 49.6203C339.415 51.3046 327.176 62.1379 316.583 62.1379C313.908 62.1379 311.561 61.4255 309.605 60.0225C307.677 58.6383 306.724 56.6228 305.712 54.4886L305.631 54.3168C305.556 54.1574 305.434 53.8981 305.371 53.7325C305.371 53.7325 305.374 53.7325 305.378 53.7325C305.462 53.7325 305.559 53.7356 305.674 53.7418C305.781 53.745 305.899 53.7512 306.031 53.7543L306.902 53.7762C308.274 53.8106 309.69 53.8481 311.136 53.8481C318.314 53.8481 326.163 52.9544 329.953 46.3394C332.669 41.5992 332.903 36.809 330.61 32.8532C327.988 28.3286 322.514 25.5195 316.32 25.5195C314.949 25.5195 313.564 25.6632 312.208 25.9444C300.097 28.4567 294.351 40.0994 294.135 49.8547C294.022 54.9417 295.266 59.6632 297.735 63.5065C300.444 67.7312 304.534 70.6371 309.562 71.9151C311.59 72.4307 313.671 72.6901 315.752 72.6901C323.542 72.6901 331.606 69.1373 340.396 61.8286C340.84 65.5095 342.74 68.5873 345.677 70.334C347.852 71.6308 350.43 72.3151 353.129 72.3151C359.376 72.3151 365.484 68.7686 367.906 63.8128C367.966 64.8408 367.922 66.7687 367.897 67.9343C367.875 68.9623 367.856 69.7778 367.881 70.0997C367.984 71.4402 369.7 72.2432 372.471 72.2432C374.971 72.2432 378.499 71.4652 378.518 69.7403C378.524 69.1435 378.518 67.853 378.518 66.3563C378.508 63.2409 378.493 58.9726 378.565 57.3071C378.702 54.0793 379.902 49.5954 381.62 45.8863C383.695 41.4086 386.317 38.3652 389.001 37.3184C390.41 36.7684 391.635 36.4903 392.641 36.4903C393.735 36.4903 394.576 36.809 395.213 37.4621C396.947 39.2463 396.838 43.2459 396.738 46.7769C396.722 47.3924 396.703 47.9986 396.697 48.5798C396.678 50.0578 396.55 51.6389 396.413 53.3106C396.035 57.9039 395.644 62.6535 397.425 66.4156C399.431 70.6559 403.022 71.5433 405.681 71.5433C411.202 71.5433 417.858 67.6843 420.592 62.9191L420.889 62.8316C424.788 69.0998 431.831 72.5463 440.756 72.5463C445.724 72.5463 450.926 71.4152 455.407 69.3591C459.438 67.5093 472.293 58.4789 471.353 51.9858L471.334 51.9733ZM383.186 9.0554C383.327 9.0304 383.464 9.02103 383.595 9.02103C385.258 9.02103 386.083 10.8771 386.286 12.4645C386.717 15.8454 383.886 19.6669 382.652 21.1511C380.986 23.1541 379.38 24.4258 378.602 24.7758C378.596 24.4602 378.586 24.1321 378.577 23.7978C378.446 18.6076 378.249 10.7709 383.183 9.0554H383.186ZM316.977 33.625C317.451 33.625 317.948 33.6531 318.451 33.7125C320.201 33.9156 321.817 35.481 322.467 37.609C322.973 39.2619 322.91 41.5492 321.22 43.0022C320.407 43.7022 318.317 44.902 315.661 44.9677H305.921C307.987 37.3371 311.605 33.625 316.973 33.625H316.977Z" fill="#f9fafa"/>
</svg>
